<svg xmlns="http://www.w3.org/2000/svg" viewBox="0 0 190.97 46.85"><defs><style>.cls-1{fill-rule:evenodd;}</style></defs><g id="Réteg_2" data-name="Réteg 2"><g id="Réteg_1" data-name="Réteg 1"><path d="M188.73,12.72a2,2,0,0,0-1,.26,1.77,1.77,0,0,0-.74.72,2.09,2.09,0,0,0-.26,1,1.88,1.88,0,0,0,.26,1,1.83,1.83,0,0,0,.73.73,2,2,0,0,0,1,.26,2,2,0,0,0,1-.26,2,2,0,0,0,.73-.73,1.94,1.94,0,0,0,0-2,1.75,1.75,0,0,0-.73-.72,2,2,0,0,0-1-.26m0-.27a2.18,2.18,0,0,1,1.1.29,2,2,0,0,1,.84.82,2.3,2.3,0,0,1,.3,1.13,2.26,2.26,0,0,1-.3,1.11,2,2,0,0,1-.82.83,2.26,2.26,0,0,1-1.12.29,2.22,2.22,0,0,1-1.11-.29,2.07,2.07,0,0,1-.83-.83,2.26,2.26,0,0,1-.3-1.11,2.3,2.3,0,0,1,.3-1.13,2,2,0,0,1,.84-.82A2.24,2.24,0,0,1,188.73,12.45Zm-.85,3.36V13.56h.78a2,2,0,0,1,.57.06.53.53,0,0,1,.29.22.56.56,0,0,1,.1.33.63.63,0,0,1-.17.43.7.7,0,0,1-.47.2,1,1,0,0,1,.19.12,2.62,2.62,0,0,1,.33.45l.28.44h-.45l-.2-.35a1.66,1.66,0,0,0-.38-.53.42.42,0,0,0-.29-.07h-.21v1Zm.37-1.27h.44a.74.74,0,0,0,.43-.09.3.3,0,0,0,.12-.25.28.28,0,0,0-.06-.18.44.44,0,0,0-.15-.12,1.52,1.52,0,0,0-.37,0h-.41Z"/><path d="M123.34,18.28h4.81l.12-.83h-4.68l2-6.93a30.64,30.64,0,0,1-6.06.59l-1.81,6.34h-3.83l-.2.83h3.78l-4.17,14.56a9.58,9.58,0,0,0-.41,2.57c0,2.4,1.32,4.06,4.24,4.06s5.13-1.56,6.27-4.92l.84-2.42h-.8l-.63,1.73c-.91,2.47-2.14,3.56-3.3,3.56a1.11,1.11,0,0,1-1.24-1.23,3.33,3.33,0,0,1,.12-.84ZM99.86,32.84A10.28,10.28,0,0,0,99.23,36c0,2.17,1.22,3.44,3.77,3.44,2.1,0,4.44-.9,5.64-4.29l1-3h-.79l-.75,2c-1,2.7-1.87,3.28-2.62,3.28a.75.75,0,0,1-.84-.85,3.56,3.56,0,0,1,.27-1.22l4.37-12.75a8,8,0,0,0,.45-2.44c0-1.81-.92-3.38-3.68-3.38-2.39,0-4.61,1-5.77,4.27l-1.14,3.17H100l.81-2.13c.88-2.36,1.67-3.28,2.69-3.28.45,0,.71.27.71.84a3.52,3.52,0,0,1-.26,1.24Zm5.63-22.25c0,1.54,1.09,2.52,3,2.52a4,4,0,0,0,4.31-3.85c0-1.6-1.1-2.6-3.08-2.6C107.38,6.66,105.49,8.08,105.49,10.59Zm78.19,13.07a7.77,7.77,0,0,0-.7-3,6.27,6.27,0,0,0-1.69-2.17,6.92,6.92,0,0,0-2.46-1.3,10.88,10.88,0,0,0-3-.41,12.81,12.81,0,0,0-2.86.33,8.91,8.91,0,0,0-2.6,1,5.69,5.69,0,0,0-1.9,1.88,5.13,5.13,0,0,0-.73,2.79,5.21,5.21,0,0,0,.46,2.32,4.53,4.53,0,0,0,1.27,1.58,7.61,7.61,0,0,0,1.9,1.09,18.49,18.49,0,0,0,2.38.77l3.37.75c.59.14,1.17.31,1.74.5a7.14,7.14,0,0,1,1.52.73,3.31,3.31,0,0,1,1.06,1.11,3,3,0,0,1,.4,1.58,3.13,3.13,0,0,1-.57,1.9,4.5,4.5,0,0,1-1.43,1.27,6.33,6.33,0,0,1-1.92.71,10,10,0,0,1-2,.21,7,7,0,0,1-4.4-1.36,5.14,5.14,0,0,1-1.94-4H167q.33,4,2.69,5.78a9.79,9.79,0,0,0,6.15,1.81,14,14,0,0,0,3-.35A9.22,9.22,0,0,0,181.62,38a6.53,6.53,0,0,0,2-2,5.4,5.4,0,0,0,.8-3,5.31,5.31,0,0,0-.55-2.46,5.58,5.58,0,0,0-1.39-1.75,7.6,7.6,0,0,0-2-1.15,10.19,10.19,0,0,0-2.24-.6l-3.5-.79c-.44-.11-.93-.26-1.46-.44a7,7,0,0,1-1.46-.69,4,4,0,0,1-1.1-1,2.4,2.4,0,0,1-.44-1.48,3.1,3.1,0,0,1,.46-1.75A3.42,3.42,0,0,1,172,19.76a5.7,5.7,0,0,1,1.64-.63,9,9,0,0,1,1.78-.18,8,8,0,0,1,2.12.27,5.15,5.15,0,0,1,1.78.85,4.44,4.44,0,0,1,1.23,1.48,5.08,5.08,0,0,1,.5,2.11ZM155,38.8l-.92,2.46c-.22.5-.43,1-.62,1.38a4.09,4.09,0,0,1-.71,1.06,3.22,3.22,0,0,1-1,.69,3.54,3.54,0,0,1-1.44.25,6.58,6.58,0,0,1-.9-.06l-.9-.15v2.21a2.92,2.92,0,0,0,.78.15l1.23.06a7.86,7.86,0,0,0,2.06-.23,3.82,3.82,0,0,0,1.44-.75,4.68,4.68,0,0,0,1.11-1.42c.32-.6.67-1.35,1.06-2.27l9.34-24.82H163l-6.64,18.35-7.09-18.35h-2.79ZM144.31,23.66a7.77,7.77,0,0,0-.71-3,6.27,6.27,0,0,0-1.69-2.17,6.92,6.92,0,0,0-2.46-1.3,10.81,10.81,0,0,0-3-.41,12.75,12.75,0,0,0-2.86.33,8.86,8.86,0,0,0-2.61,1A5.57,5.57,0,0,0,129.07,20a5.13,5.13,0,0,0-.73,2.79,5.36,5.36,0,0,0,.45,2.32,4.56,4.56,0,0,0,1.28,1.58A7.55,7.55,0,0,0,132,27.77a19.56,19.56,0,0,0,2.38.77l3.38.75c.58.14,1.16.31,1.73.5a6.91,6.91,0,0,1,1.52.73A3.34,3.34,0,0,1,142,31.63a3.06,3.06,0,0,1,.39,1.58,3.12,3.12,0,0,1-.56,1.9,4.54,4.54,0,0,1-1.44,1.27,6.14,6.14,0,0,1-1.92.71,9.92,9.92,0,0,1-2,.21,7,7,0,0,1-4.4-1.36,5.17,5.17,0,0,1-1.94-4h-2.62c.22,2.64,1.11,4.57,2.69,5.78a9.79,9.79,0,0,0,6.15,1.81,13.91,13.91,0,0,0,3-.35A9.18,9.18,0,0,0,142.25,38a6.53,6.53,0,0,0,2-2,5.4,5.4,0,0,0,.79-3,5.31,5.31,0,0,0-.54-2.46,5.61,5.61,0,0,0-1.4-1.75,7.44,7.44,0,0,0-2-1.15,10.11,10.11,0,0,0-2.23-.6l-3.5-.79c-.45-.11-.94-.26-1.46-.44a6.77,6.77,0,0,1-1.46-.69,3.89,3.89,0,0,1-1.11-1,2.47,2.47,0,0,1-.44-1.48,3.18,3.18,0,0,1,.46-1.75,3.51,3.51,0,0,1,1.21-1.15,5.65,5.65,0,0,1,1.65-.63,9,9,0,0,1,1.77-.18,8.18,8.18,0,0,1,2.13.27,5,5,0,0,1,1.77.85,4.21,4.21,0,0,1,1.23,1.48,4.79,4.79,0,0,1,.5,2.11Zm-48.67-6.3H93v11a12.81,12.81,0,0,1-.37,3.09,8.29,8.29,0,0,1-1.17,2.69,6,6,0,0,1-2,1.87,5.64,5.64,0,0,1-2.9.71c-2.08,0-3.55-.48-4.4-1.45a6.66,6.66,0,0,1-1.36-4.28V17.36H78.17V30.94a12.47,12.47,0,0,0,.41,3.3,6.46,6.46,0,0,0,1.32,2.52,5.72,5.72,0,0,0,2.33,1.57,9.72,9.72,0,0,0,3.49.55,11,11,0,0,0,4.4-.85,6,6,0,0,0,3-3h.08v3.88h2.42ZM65.07,38.88H67.7V27.59a8.11,8.11,0,0,1,.58-3.08A7.15,7.15,0,0,1,69.93,22a7.43,7.43,0,0,1,2.52-1.58A8,8,0,0,1,75.71,20V17.36a8.8,8.8,0,0,0-5,1.15,7.53,7.53,0,0,0-3.11,3.9h-.08V17.36H65.07Zm-2.5-21.52H58.31V15.49c0-.59,0-1.13,0-1.63a3.37,3.37,0,0,1,.31-1.32,2,2,0,0,1,.85-.89,3.44,3.44,0,0,1,1.67-.34,5.7,5.7,0,0,1,.92.07l1,.14V9.27c-.42-.06-.79-.1-1.13-.13s-.69,0-1.08,0a6.49,6.49,0,0,0-2.61.46,3.83,3.83,0,0,0-1.6,1.3,4.92,4.92,0,0,0-.8,2,14.38,14.38,0,0,0-.2,2.54v2H52v2.21h3.68V38.88h2.62V19.57h4.26Z"/><path class="cls-1" d="M19.27,9.69h0a1.43,1.43,0,0,0-.54-.13c-.81.12-2,.77-3.21,1A12.6,12.6,0,0,1,11,10.52c-2.09-.48-1.25-.93-3.5.2a6.16,6.16,0,0,0-2.86,2.12,11.2,11.2,0,0,0-1.48,3C7.07,17.41,26.89,21.05,32.3,20a51.81,51.81,0,0,1-4.81-5.54c-1.06-1.41-1-1.81-2.67-2.36a50,50,0,0,1-5.55-2.37m2.5.75h0l.39-.67L24,8.13a3.46,3.46,0,0,0-.92-1.08L21.66,8.5l-.1-1.09L20,7.1a5.6,5.6,0,0,0-.36.49c.56,0,1.48,0,1.49.74a3.07,3.07,0,0,1-.4,1.62A5.54,5.54,0,0,1,21.77,10.44ZM19.6,5.31c-.54-2.68-3-3.86-5-4.44C8.73-.79,6.11.27.31,1.22a.53.53,0,0,0,0,1c3.07,1.69,6.3,5.51,10,6.77a10,10,0,0,0,5.63.26C18,8.62,20.08,7.74,19.6,5.31Zm4.52,2.33c.87-.09,1.8-.54,2.7-.72,1.93-.39,5.08,1.67,6.35,3.05,2.33,2.52,2.1,3,3,4.9,1,2.61,1.13,4.41,1.37,8a.8.8,0,0,1-.4-.06c-1.3-.45-3.24-3.08-4.11-4.1-.65-.75-5-6.27-7.32-9.09C25.2,9,24.64,8.35,24.12,7.64ZM5.36,22.91h0A16,16,0,0,1,6.28,18c1,.14,4.34,1,5.53,1.2,1.87.37,3.73.72,5.62,1,2.59.41,9.21,1.52,11.88,1.21a1,1,0,0,1-.11,1.39,3,3,0,0,1-1.57.68A53.29,53.29,0,0,1,16,24.23C13.73,24.16,7,23.55,5.36,22.91Zm22.17,1.95h0a56.4,56.4,0,0,1-15.62.39A38.56,38.56,0,0,1,5,24.13c-1.87-.69-.62-1.67-3-.5-1,.51-.58,2.18-.67,3.37,0,.35-.18.35.21.61a20.42,20.42,0,0,0,5.22,2.22,50.89,50.89,0,0,0,6.69,1.5c4.06.65,10.07,1.23,15.19.2A12.07,12.07,0,0,0,32.85,30c.79-.49.68-1,.83-1.91a10.43,10.43,0,0,0-.08-4.75,10.07,10.07,0,0,0-2.66-1.38C30.25,24.24,29.83,24.39,27.53,24.86Zm8.4,8.43h0c-1.08,3.8-1.14,6.27-5.57,6.59A62,62,0,0,1,18,39.57,55.8,55.8,0,0,1,7.11,37.13C5.57,36.61,3.46,36,2.47,34.69,1.8,33.83.79,30.3.59,28.58a33.47,33.47,0,0,0,7.88,3.07,57.77,57.77,0,0,0,8.93,1.49c4,.38,13.42.76,17.11-.24,1-.2,1-.52,1.4-1A2.31,2.31,0,0,1,35.93,33.29Zm-7.22,8c-3.15.64-12.12-.46-14.83-1C10.36,39.54,3.66,38,1.53,35.6c-.28-.32-.83-1.41-1-.42a7.14,7.14,0,0,0,.49,2c1.24,3.06,3.24,6.43,6.21,8.05,3.35,1.83,10,1.16,15.4.06C24.26,45.18,28.61,42.72,28.71,41.25Z"/></g></g></svg>